<svg xmlns="http://www.w3.org/2000/svg"  viewBox="0 0 32 32" width="32px" height="32px"><path d="M 11 2 L 11 4 L 21 4 L 21 2 L 11 2 z M 4 6 L 4 8 L 28 8 L 28 6 L 4 6 z M 7.9921875 9.875 L 6.0078125 10.125 C 6.0078125 10.125 7 18.074074 7 27 L 7 28 L 25 28 L 25 27 C 25 18.074074 25.992188 10.125 25.992188 10.125 L 24.007812 9.875 C 24.007812 9.875 23.120303 17.398914 23.042969 26 L 8.9570312 26 C 8.8796974 17.398914 7.9921875 9.875 7.9921875 9.875 z M 12.986328 10.835938 L 11.013672 11.164062 C 11.013672 11.164062 12 17.111111 12 23 L 14 23 C 14 16.888889 12.986328 10.835936 12.986328 10.835938 z M 19.013672 10.835938 C 19.013672 10.835938 18 16.888889 18 23 L 20 23 C 20 17.111111 20.986328 11.164064 20.986328 11.164062 L 19.013672 10.835938 z"/></svg>