<?xml version="1.0" encoding="utf-8"?><svg xml:space="preserve" viewBox="0 0 100 100" y="0" x="0" xmlns="http://www.w3.org/2000/svg" id="圖層_1" version="1.1" width="200px" height="200px" xmlns:xlink="http://www.w3.org/1999/xlink" style="width:100%;height:100%;background-size:initial;background-repeat-y:initial;background-repeat-x:initial;background-position-y:initial;background-position-x:initial;background-origin:initial;background-image:initial;background-color:rgb(255, 255, 255);background-clip:initial;background-attachment:initial;animation-play-state:paused" ><g class="ldl-scale" style="transform-origin:50% 50%;transform:rotate(0deg) scale(0.8, 0.8);animation-play-state:paused" ><path stroke-miterlimit="10" stroke-linecap="round" stroke-width="5" stroke="#e0e0e0" fill="#fff" d="M87.097 39.539C81.778 32.093 73.064 27.24 63.216 27.24H36.784c-9.848 0-18.562 4.854-23.881 12.299" style="stroke:rgb(224, 224, 224);fill:rgb(255, 255, 255);animation-play-state:paused" ></path>
<path stroke-miterlimit="10" stroke-width="5" stroke="#e15b64" fill="#c33737" d="M84.028 84.115H15.972a3.472 3.472 0 0 1-3.472-3.472V60.174c0-14.277 11.574-25.851 25.851-25.851h23.298c14.277 0 25.851 11.574 25.851 25.851v20.468a3.473 3.473 0 0 1-3.472 3.473z" style="stroke:rgb(225, 91, 100);fill:rgb(195, 55, 55);animation-play-state:paused" ></path>
<g style="animation-play-state:paused" ><circle fill="#e0e0e0" r="6.354" cy="19.739" cx="42.917" style="fill:rgb(224, 224, 224);animation-play-state:paused" ></circle>
<path fill="#e0e0e0" d="M42.917 15.885a3.854 3.854 0 1 1 0 7.708 3.854 3.854 0 0 1 0-7.708m0-5c-4.882 0-8.854 3.972-8.854 8.854s3.972 8.854 8.854 8.854 8.854-3.972 8.854-8.854-3.972-8.854-8.854-8.854z" style="fill:rgb(224, 224, 224);animation-play-state:paused" ></path></g>
<g style="animation-play-state:paused" ><circle fill="#e0e0e0" r="6.354" cy="19.739" cx="57.917" style="fill:rgb(224, 224, 224);animation-play-state:paused" ></circle>
<path fill="#e0e0e0" d="M57.917 15.885a3.854 3.854 0 1 1 0 7.708 3.854 3.854 0 0 1 0-7.708m0-5c-4.882 0-8.854 3.972-8.854 8.854s3.972 8.854 8.854 8.854 8.854-3.972 8.854-8.854-3.972-8.854-8.854-8.854z" style="fill:rgb(224, 224, 224);animation-play-state:paused" ></path></g>
<metadata xmlns:d="https://loading.io/stock/" style="animation-play-state:paused" ><d:name style="animation-play-state:paused" >wallet</d:name>
<d:tags style="animation-play-state:paused" >wallet,purse,money,bag,coin purse</d:tags>
<d:license style="animation-play-state:paused" >by</d:license>
<d:slug style="animation-play-state:paused" >3j0g3m</d:slug></metadata></g><!-- generated by https://loading.io/ --></svg>