<?xml version="1.0" encoding="utf-8"?>
<!-- Svg Vector Icons : http://www.onlinewebfonts.com/icon -->
<!DOCTYPE svg PUBLIC "-//W3C//DTD SVG 1.1//EN" "http://www.w3.org/Graphics/SVG/1.1/DTD/svg11.dtd">
<svg version="1.1" xmlns="http://www.w3.org/2000/svg" xmlns:xlink="http://www.w3.org/1999/xlink" x="0px" y="0px" viewBox="0 0 1000 1000" enable-background="new 0 0 1000 1000" xml:space="preserve">
<metadata> Svg Vector Icons : http://www.onlinewebfonts.com/icon </metadata>
<g><path d="M990,530.6l-122.5-245H683.8V163.1c0-33.7-27.6-61.3-61.3-61.3H71.3c-33.7,0-61.3,27.6-61.3,61.3v490l61.3,61.3h77.7c-10.4,18-16.4,38.9-16.4,61.3c0,67.7,54.8,122.5,122.5,122.5s122.5-54.8,122.5-122.5c0-22.3-6-43.2-16.4-61.3h339.1c-10.4,18-16.4,38.9-16.4,61.3c0,67.7,54.8,122.5,122.5,122.5c67.7,0,122.5-54.8,122.5-122.5c0-22.3-6-43.2-16.4-61.3H990V530.6z M683.8,530.6V346.9h127l91.9,183.8H683.8z"/></g>
</svg>