<?xml version="1.0" encoding="utf-8"?>
<!-- Svg Vector Icons : http://www.onlinewebfonts.com/icon -->
<!DOCTYPE svg PUBLIC "-//W3C//DTD SVG 1.1//EN" "http://www.w3.org/Graphics/SVG/1.1/DTD/svg11.dtd">
<svg version="1.1" xmlns="http://www.w3.org/2000/svg" xmlns:xlink="http://www.w3.org/1999/xlink" x="0px" y="0px" viewBox="0 0 1000 1000" enable-background="new 0 0 1000 1000" xml:space="preserve">
<metadata> Svg Vector Icons : http://www.onlinewebfonts.com/icon </metadata>
<g><g transform="translate(0.000000,511.000000) scale(0.100000,-0.100000)"><path d="M869.9,3455.1c-377.3-63.2-691.4-386.8-746.9-773.7c-11.5-80.4-19.2-796.7-19.2-1813.6V-813.7h2757.8h2757.8v1691c0,1064.8-7.6,1735.1-19.2,1813.6c-63.2,392.6-373.4,702.8-766,766C4679,3480,1021.2,3480,869.9,3455.1z"/><path d="M6425.6,2231.3c-132.1-28.7-243.2-91.9-335.1-193.4c-166.6-185.8-155.1-9.6-160.9-2328.8l-5.8-2054.9h304.5h304.5l9.6,216.4c7.7,162.8,23,250.9,61.3,367.7c141.7,421.3,465.4,745,886.7,886.7c134.1,46,178.1,49.8,427.1,49.8c254.7,1.9,289.2-3.8,430.9-51.7c429-149.4,741.2-463.5,881-884.8c38.3-113,53.6-206.8,61.3-367.7l11.5-218.3l59.4,11.5c170.4,34.5,252.8,74.7,358.1,180c185.8,185.8,180,149.4,180,1332.9c0,1323.3,34.5,1189.3-545.8,2058.7c-421.3,628.1-526.7,741.2-829.2,881c-256.6,120.6-270,120.6-1181.6,126.4C6885.2,2244.8,6471.6,2240.9,6425.6,2231.3z M8396.2,1578.3c59.4-26.8,139.8-78.5,180-114.9c59.4-51.7,720.1-1007.3,720.1-1039.9c0-5.8-70.9,28.7-157,74.7c-356.2,187.7-563,220.2-1426.8,220.2h-561.1V1134c0,402.2,1.9,415.6,42.1,459.6l42.1,46l528.6-5.8C8285.2,1628.1,8292.8,1628.1,8396.2,1578.3z"/><path d="M107.7-1487.8c11.5-448.1,26.8-509.4,185.8-668.4c107.2-105.3,193.4-149.4,360-178.1l63.2-9.6v147.5c0,375.4,128.3,689.4,388.8,957.6l116.8,118.7H661.1H100L107.7-1487.8z"/><path d="M1950-1139.3c-235.6-34.5-434.7-136-603.3-304.5c-206.8-206.8-310.2-457.7-310.2-748.8c0-482.6,308.3-886.7,783.3-1026.5c159-46,419.4-42.1,582.2,9.6c453.9,143.6,748.8,540,752.6,1007.3c1.9,298.8-99.6,547.7-310.2,758.4C2610.7-1208.2,2262.2-1091.4,1950-1139.3z M2250.7-1754c176.2-53.6,304.5-237.5,304.5-438.6c0-264.3-195.3-459.6-459.6-459.6c-492.2,0-641.6,658.8-201.1,879C1982.6-1729.1,2137.7-1721.4,2250.7-1754z"/><path d="M3093.3-1248.4c247-258.5,360-522.8,377.3-881l9.6-216.4h1068.6h1070.5v612.8v612.8H4294.1H2970.8L3093.3-1248.4z"/><path d="M7750.8-1141.2c-517.1-90-888.6-524.8-892.4-1041.8c-1.9-300.7,99.6-549.6,310.3-758.4c348.5-348.6,871.4-411.7,1298.4-159c570.7,339,683.7,1137.6,229.8,1629.8C8463.3-1219.7,8074.5-1083.7,7750.8-1141.2z M8072.6-1754c176.2-53.6,304.5-237.5,304.5-438.6c0-264.3-195.3-459.6-459.6-459.6c-268.1,0-459.6,193.4-459.6,461.6C7457.8-1867,7752.8-1658.2,8072.6-1754z"/></g></g>
</svg>