<svg width="83" height="39" viewBox="0 0 83 39" fill="none" xmlns="http://www.w3.org/2000/svg">
<rect x="1" y="1" width="81" height="37" rx="18.5" fill="white"/>
<path d="M22.9389 25H20.6889L24.7855 13.3636H27.3878L31.4901 25H29.2401L26.1321 15.75H26.0412L22.9389 25ZM23.0128 20.4375H29.1491V22.1307H23.0128V20.4375ZM39.6889 18.5795L37.8139 18.7841C37.7609 18.5947 37.6681 18.4167 37.5355 18.25C37.4067 18.0833 37.2325 17.9489 37.0128 17.8466C36.7931 17.7443 36.5241 17.6932 36.206 17.6932C35.7779 17.6932 35.4181 17.786 35.1264 17.9716C34.8385 18.1572 34.6965 18.3977 34.7003 18.6932C34.6965 18.947 34.7893 19.1534 34.9787 19.3125C35.1719 19.4716 35.4901 19.6023 35.9332 19.7045L37.4219 20.0227C38.2476 20.2008 38.8613 20.483 39.2628 20.8693C39.6681 21.2557 39.8726 21.7614 39.8764 22.3864C39.8726 22.9356 39.7116 23.4205 39.3935 23.8409C39.0791 24.2576 38.6416 24.5833 38.081 24.8182C37.5204 25.053 36.8764 25.1705 36.1491 25.1705C35.081 25.1705 34.2211 24.947 33.5696 24.5C32.9181 24.0492 32.5298 23.4223 32.4048 22.6193L34.4105 22.4261C34.5014 22.8201 34.6946 23.1174 34.9901 23.3182C35.2855 23.5189 35.67 23.6193 36.1435 23.6193C36.6321 23.6193 37.0241 23.5189 37.3196 23.3182C37.6188 23.1174 37.7685 22.8693 37.7685 22.5739C37.7685 22.3239 37.6719 22.1174 37.4787 21.9545C37.2893 21.7917 36.9938 21.6667 36.5923 21.5795L35.1037 21.267C34.2666 21.0928 33.6473 20.7992 33.2457 20.3864C32.8442 19.9697 32.6454 19.4432 32.6491 18.8068C32.6454 18.2689 32.7912 17.803 33.0866 17.4091C33.3859 17.0114 33.8007 16.7045 34.331 16.4886C34.8651 16.2689 35.4806 16.1591 36.1776 16.1591C37.2003 16.1591 38.0052 16.3769 38.5923 16.8125C39.1832 17.2481 39.5488 17.8371 39.6889 18.5795ZM41.5724 25V16.2727H43.6293V25H41.5724ZM42.6065 15.0341C42.2808 15.0341 42.0005 14.9261 41.7656 14.7102C41.5308 14.4905 41.4134 14.2273 41.4134 13.9205C41.4134 13.6098 41.5308 13.3466 41.7656 13.1307C42.0005 12.911 42.2808 12.8011 42.6065 12.8011C42.9361 12.8011 43.2164 12.911 43.4474 13.1307C43.6823 13.3466 43.7997 13.6098 43.7997 13.9205C43.7997 14.2273 43.6823 14.4905 43.4474 14.7102C43.2164 14.9261 42.9361 15.0341 42.6065 15.0341ZM49.5511 25.1705C48.6799 25.1705 47.9318 24.9792 47.3068 24.5966C46.6856 24.214 46.2064 23.6856 45.8693 23.0114C45.536 22.3333 45.3693 21.553 45.3693 20.6705C45.3693 19.7841 45.5398 19.0019 45.8807 18.3239C46.2216 17.642 46.7027 17.1117 47.3239 16.733C47.9489 16.3504 48.6875 16.1591 49.5398 16.1591C50.2481 16.1591 50.875 16.2898 51.4205 16.5511C51.9697 16.8087 52.4072 17.1742 52.733 17.6477C53.0587 18.1174 53.2443 18.6667 53.2898 19.2955H51.3239C51.2443 18.875 51.0549 18.5246 50.7557 18.2443C50.4602 17.9602 50.0644 17.8182 49.5682 17.8182C49.1477 17.8182 48.7784 17.9318 48.4602 18.1591C48.142 18.3826 47.8939 18.7045 47.7159 19.125C47.5417 19.5455 47.4545 20.0492 47.4545 20.6364C47.4545 21.2311 47.5417 21.7424 47.7159 22.1705C47.8902 22.5947 48.1345 22.9223 48.4489 23.1534C48.767 23.3807 49.1402 23.4943 49.5682 23.4943C49.8712 23.4943 50.142 23.4375 50.3807 23.3239C50.6231 23.2064 50.8258 23.0379 50.9886 22.8182C51.1515 22.5985 51.2633 22.3314 51.3239 22.017H53.2898C53.2405 22.6345 53.0587 23.1818 52.7443 23.6591C52.4299 24.1326 52.0019 24.5038 51.4602 24.7727C50.9186 25.0379 50.2822 25.1705 49.5511 25.1705ZM61.8764 18.5795L60.0014 18.7841C59.9484 18.5947 59.8556 18.4167 59.723 18.25C59.5942 18.0833 59.42 17.9489 59.2003 17.8466C58.9806 17.7443 58.7116 17.6932 58.3935 17.6932C57.9654 17.6932 57.6056 17.786 57.3139 17.9716C57.026 18.1572 56.884 18.3977 56.8878 18.6932C56.884 18.947 56.9768 19.1534 57.1662 19.3125C57.3594 19.4716 57.6776 19.6023 58.1207 19.7045L59.6094 20.0227C60.4351 20.2008 61.0488 20.483 61.4503 20.8693C61.8556 21.2557 62.0601 21.7614 62.0639 22.3864C62.0601 22.9356 61.8991 23.4205 61.581 23.8409C61.2666 24.2576 60.8291 24.5833 60.2685 24.8182C59.7079 25.053 59.0639 25.1705 58.3366 25.1705C57.2685 25.1705 56.4086 24.947 55.7571 24.5C55.1056 24.0492 54.7173 23.4223 54.5923 22.6193L56.598 22.4261C56.6889 22.8201 56.8821 23.1174 57.1776 23.3182C57.473 23.5189 57.8575 23.6193 58.331 23.6193C58.8196 23.6193 59.2116 23.5189 59.5071 23.3182C59.8063 23.1174 59.956 22.8693 59.956 22.5739C59.956 22.3239 59.8594 22.1174 59.6662 21.9545C59.4768 21.7917 59.1813 21.6667 58.7798 21.5795L57.2912 21.267C56.4541 21.0928 55.8348 20.7992 55.4332 20.3864C55.0317 19.9697 54.8329 19.4432 54.8366 18.8068C54.8329 18.2689 54.9787 17.803 55.2741 17.4091C55.5734 17.0114 55.9882 16.7045 56.5185 16.4886C57.0526 16.2689 57.6681 16.1591 58.3651 16.1591C59.3878 16.1591 60.1927 16.3769 60.7798 16.8125C61.3707 17.2481 61.7363 17.8371 61.8764 18.5795Z" fill="#343A40"/>
<rect x="1" y="1" width="81" height="37" rx="18.5" stroke="#343A40" stroke-width="2"/>
</svg>
