<svg width="94" height="39" viewBox="0 0 94 39" fill="none" xmlns="http://www.w3.org/2000/svg">
<rect x="1" y="1" width="92" height="37" rx="18.5" fill="white"/>
<path d="M22.8374 25H20.5874L24.6839 13.3636H27.2862L31.3885 25H29.1385L26.0305 15.75H25.9396L22.8374 25ZM22.9112 20.4375H29.0476V22.1307H22.9112V20.4375ZM35.8033 25.1534C35.1177 25.1534 34.504 24.9773 33.9624 24.625C33.4207 24.2727 32.9927 23.7614 32.6783 23.0909C32.3639 22.4205 32.2067 21.6061 32.2067 20.6477C32.2067 19.678 32.3658 18.8598 32.6839 18.1932C33.0059 17.5227 33.4396 17.017 33.9851 16.6761C34.5305 16.3314 35.1385 16.1591 35.8089 16.1591C36.3203 16.1591 36.7408 16.2462 37.0703 16.4205C37.3999 16.5909 37.6612 16.7973 37.8544 17.0398C38.0476 17.2784 38.1972 17.5038 38.3033 17.7159H38.3885V13.3636H40.451V25H38.4283V23.625H38.3033C38.1972 23.8371 38.0438 24.0625 37.843 24.3011C37.6423 24.536 37.3771 24.7367 37.0476 24.9034C36.718 25.0701 36.3033 25.1534 35.8033 25.1534ZM36.3771 23.4659C36.8127 23.4659 37.1839 23.3485 37.4908 23.1136C37.7976 22.875 38.0305 22.5436 38.1896 22.1193C38.3487 21.6951 38.4283 21.2008 38.4283 20.6364C38.4283 20.072 38.3487 19.5814 38.1896 19.1648C38.0343 18.7481 37.8033 18.4242 37.4964 18.1932C37.1934 17.9621 36.8203 17.8466 36.3771 17.8466C35.9188 17.8466 35.5362 17.9659 35.2294 18.2045C34.9226 18.4432 34.6915 18.7727 34.5362 19.1932C34.3809 19.6136 34.3033 20.0947 34.3033 20.6364C34.3033 21.1818 34.3809 21.6686 34.5362 22.0966C34.6953 22.5208 34.9283 22.8561 35.2351 23.1023C35.5457 23.3447 35.9264 23.4659 36.3771 23.4659ZM42.6428 25V16.2727H44.6996V25H42.6428ZM43.6768 15.0341C43.3511 15.0341 43.0708 14.9261 42.8359 14.7102C42.6011 14.4905 42.4837 14.2273 42.4837 13.9205C42.4837 13.6098 42.6011 13.3466 42.8359 13.1307C43.0708 12.911 43.3511 12.8011 43.6768 12.8011C44.0064 12.8011 44.2867 12.911 44.5178 13.1307C44.7526 13.3466 44.87 13.6098 44.87 13.9205C44.87 14.2273 44.7526 14.4905 44.5178 14.7102C44.2867 14.9261 44.0064 15.0341 43.6768 15.0341ZM50.0533 25.1534C49.3677 25.1534 48.754 24.9773 48.2124 24.625C47.6707 24.2727 47.2427 23.7614 46.9283 23.0909C46.6139 22.4205 46.4567 21.6061 46.4567 20.6477C46.4567 19.678 46.6158 18.8598 46.9339 18.1932C47.2559 17.5227 47.6896 17.017 48.2351 16.6761C48.7805 16.3314 49.3885 16.1591 50.0589 16.1591C50.5703 16.1591 50.9908 16.2462 51.3203 16.4205C51.6499 16.5909 51.9112 16.7973 52.1044 17.0398C52.2976 17.2784 52.4472 17.5038 52.5533 17.7159H52.6385V13.3636H54.701V25H52.6783V23.625H52.5533C52.4472 23.8371 52.2938 24.0625 52.093 24.3011C51.8923 24.536 51.6271 24.7367 51.2976 24.9034C50.968 25.0701 50.5533 25.1534 50.0533 25.1534ZM50.6271 23.4659C51.0627 23.4659 51.4339 23.3485 51.7408 23.1136C52.0476 22.875 52.2805 22.5436 52.4396 22.1193C52.5987 21.6951 52.6783 21.2008 52.6783 20.6364C52.6783 20.072 52.5987 19.5814 52.4396 19.1648C52.2843 18.7481 52.0533 18.4242 51.7464 18.1932C51.4434 17.9621 51.0703 17.8466 50.6271 17.8466C50.1688 17.8466 49.7862 17.9659 49.4794 18.2045C49.1726 18.4432 48.9415 18.7727 48.7862 19.1932C48.6309 19.6136 48.5533 20.0947 48.5533 20.6364C48.5533 21.1818 48.6309 21.6686 48.7862 22.0966C48.9453 22.5208 49.1783 22.8561 49.4851 23.1023C49.7957 23.3447 50.1764 23.4659 50.6271 23.4659ZM59.4041 25.1761C58.8511 25.1761 58.353 25.0777 57.9098 24.8807C57.4704 24.6799 57.1219 24.3845 56.8643 23.9943C56.6106 23.6042 56.4837 23.1231 56.4837 22.5511C56.4837 22.0587 56.5746 21.6515 56.7564 21.3295C56.9382 21.0076 57.1863 20.75 57.5007 20.5568C57.8151 20.3636 58.1693 20.2178 58.5632 20.1193C58.9609 20.017 59.3719 19.9432 59.7962 19.8977C60.3075 19.8447 60.7223 19.7973 61.0405 19.7557C61.3587 19.7102 61.5897 19.642 61.7337 19.5511C61.8814 19.4564 61.9553 19.3106 61.9553 19.1136V19.0795C61.9553 18.6515 61.8284 18.3201 61.5746 18.0852C61.3208 17.8504 60.9553 17.733 60.478 17.733C59.9742 17.733 59.5746 17.8428 59.2791 18.0625C58.9875 18.2822 58.7905 18.5417 58.6882 18.8409L56.7678 18.5682C56.9193 18.0379 57.1693 17.5947 57.5178 17.2386C57.8662 16.8788 58.2924 16.6098 58.7962 16.4318C59.3 16.25 59.8568 16.1591 60.4666 16.1591C60.8871 16.1591 61.3056 16.2083 61.7223 16.3068C62.139 16.4053 62.5196 16.5682 62.8643 16.7955C63.209 17.0189 63.4856 17.3239 63.6939 17.7102C63.906 18.0966 64.0121 18.5795 64.0121 19.1591V25H62.0348V23.8011H61.9666C61.8416 24.0436 61.6655 24.2708 61.4382 24.483C61.2147 24.6913 60.9325 24.8598 60.5916 24.9886C60.2545 25.1136 59.8587 25.1761 59.4041 25.1761ZM59.9382 23.6648C60.3511 23.6648 60.709 23.5833 61.0121 23.4205C61.3151 23.2538 61.5481 23.0341 61.7109 22.7614C61.8776 22.4886 61.9609 22.1913 61.9609 21.8693V20.8409C61.8965 20.8939 61.7867 20.9432 61.6314 20.9886C61.4799 21.0341 61.3094 21.0739 61.12 21.108C60.9306 21.142 60.7431 21.1723 60.5575 21.1989C60.3719 21.2254 60.2109 21.2481 60.0746 21.267C59.7678 21.3087 59.4931 21.3769 59.2507 21.4716C59.0083 21.5663 58.817 21.6989 58.6768 21.8693C58.5367 22.036 58.4666 22.2519 58.4666 22.517C58.4666 22.8958 58.6049 23.1818 58.8814 23.375C59.1579 23.5682 59.5102 23.6648 59.9382 23.6648ZM72.978 18.5795L71.103 18.7841C71.05 18.5947 70.9571 18.4167 70.8246 18.25C70.6958 18.0833 70.5215 17.9489 70.3018 17.8466C70.0821 17.7443 69.8132 17.6932 69.495 17.6932C69.067 17.6932 68.7071 17.786 68.4155 17.9716C68.1276 18.1572 67.9856 18.3977 67.9893 18.6932C67.9856 18.947 68.0784 19.1534 68.2678 19.3125C68.4609 19.4716 68.7791 19.6023 69.2223 19.7045L70.7109 20.0227C71.5367 20.2008 72.1503 20.483 72.5518 20.8693C72.9571 21.2557 73.1617 21.7614 73.1655 22.3864C73.1617 22.9356 73.0007 23.4205 72.6825 23.8409C72.3681 24.2576 71.9306 24.5833 71.37 24.8182C70.8094 25.053 70.1655 25.1705 69.4382 25.1705C68.37 25.1705 67.5102 24.947 66.8587 24.5C66.2071 24.0492 65.8189 23.4223 65.6939 22.6193L67.6996 22.4261C67.7905 22.8201 67.9837 23.1174 68.2791 23.3182C68.5746 23.5189 68.959 23.6193 69.4325 23.6193C69.9212 23.6193 70.3132 23.5189 70.6087 23.3182C70.9079 23.1174 71.0575 22.8693 71.0575 22.5739C71.0575 22.3239 70.9609 22.1174 70.7678 21.9545C70.5784 21.7917 70.2829 21.6667 69.8814 21.5795L68.3928 21.267C67.5556 21.0928 66.9363 20.7992 66.5348 20.3864C66.1333 19.9697 65.9344 19.4432 65.9382 18.8068C65.9344 18.2689 66.0803 17.803 66.3757 17.4091C66.675 17.0114 67.0897 16.7045 67.62 16.4886C68.1541 16.2689 68.7696 16.1591 69.4666 16.1591C70.4893 16.1591 71.2943 16.3769 71.8814 16.8125C72.4723 17.2481 72.8378 17.8371 72.978 18.5795Z" fill="#343A40"/>
<rect x="1" y="1" width="92" height="37" rx="18.5" stroke="#343A40" stroke-width="2"/>
</svg>
