<svg width="75" height="39" viewBox="0 0 75 39" fill="none" xmlns="http://www.w3.org/2000/svg">
<rect x="1" y="1" width="73" height="37" rx="18.5" fill="white"/>
<path d="M31.0774 13.3636V25H29.2024L23.7195 17.0739H23.6229V25H21.5149V13.3636H23.4013L28.8786 21.2955H28.9808V13.3636H31.0774ZM33.2834 25V16.2727H35.3402V25H33.2834ZM34.3175 15.0341C33.9917 15.0341 33.7114 14.9261 33.4766 14.7102C33.2417 14.4905 33.1243 14.2273 33.1243 13.9205C33.1243 13.6098 33.2417 13.3466 33.4766 13.1307C33.7114 12.911 33.9917 12.8011 34.3175 12.8011C34.647 12.8011 34.9273 12.911 35.1584 13.1307C35.3932 13.3466 35.5107 13.6098 35.5107 13.9205C35.5107 14.2273 35.3932 14.4905 35.1584 14.7102C34.9273 14.9261 34.647 15.0341 34.3175 15.0341ZM39.3303 22.2614L39.3246 19.7784H39.6541L42.7905 16.2727H45.1939L41.3359 20.5682H40.9098L39.3303 22.2614ZM37.4553 25V13.3636H39.5121V25H37.4553ZM42.9325 25L40.0916 21.0284L41.478 19.5795L45.3928 25H42.9325ZM50.0689 25.1705C49.1939 25.1705 48.4382 24.9886 47.8018 24.625C47.1693 24.2576 46.6825 23.7386 46.3416 23.0682C46.0007 22.3939 45.8303 21.6004 45.8303 20.6875C45.8303 19.7898 46.0007 19.0019 46.3416 18.3239C46.6863 17.642 47.1674 17.1117 47.7848 16.733C48.4022 16.3504 49.1276 16.1591 49.9609 16.1591C50.4988 16.1591 51.0064 16.2462 51.4837 16.4205C51.9647 16.5909 52.389 16.8561 52.7564 17.2159C53.1276 17.5758 53.4193 18.0341 53.6314 18.5909C53.8435 19.1439 53.9496 19.803 53.9496 20.5682V21.1989H46.7962V19.8125H51.978C51.9742 19.4186 51.889 19.0682 51.7223 18.7614C51.5556 18.4508 51.3227 18.2064 51.0234 18.0284C50.728 17.8504 50.3833 17.7614 49.9893 17.7614C49.5689 17.7614 49.1996 17.8636 48.8814 18.0682C48.5632 18.2689 48.3151 18.5341 48.1371 18.8636C47.9628 19.1894 47.8738 19.5473 47.87 19.9375V21.1477C47.87 21.6553 47.9628 22.0909 48.1484 22.4545C48.334 22.8144 48.5935 23.0909 48.9268 23.2841C49.2602 23.4735 49.6503 23.5682 50.0973 23.5682C50.3965 23.5682 50.6674 23.5265 50.9098 23.4432C51.1522 23.3561 51.3625 23.2292 51.5405 23.0625C51.7185 22.8958 51.853 22.6894 51.9439 22.4432L53.8643 22.6591C53.7431 23.1667 53.5121 23.6098 53.1712 23.9886C52.834 24.3636 52.4022 24.6553 51.8757 24.8636C51.3492 25.0682 50.7469 25.1705 50.0689 25.1705Z" fill="#343A40"/>
<rect x="1" y="1" width="73" height="37" rx="18.5" stroke="#343A40" stroke-width="2"/>
</svg>
