<svg width="84" height="39" viewBox="0 0 84 39" fill="none" xmlns="http://www.w3.org/2000/svg">
<rect x="1" y="1" width="82" height="37" rx="18.5" fill="white"/>
<path d="M21.3587 25V13.3636H25.7223C26.6162 13.3636 27.3662 13.5303 27.9723 13.8636C28.5822 14.197 29.0424 14.6553 29.353 15.2386C29.6674 15.8182 29.8246 16.4773 29.8246 17.2159C29.8246 17.9621 29.6674 18.625 29.353 19.2045C29.0386 19.7841 28.5746 20.2405 27.9609 20.5739C27.3473 20.9034 26.5916 21.0682 25.6939 21.0682H22.8018V19.3352H25.4098C25.9325 19.3352 26.3606 19.2443 26.6939 19.0625C27.0272 18.8807 27.2734 18.6307 27.4325 18.3125C27.5954 17.9943 27.6768 17.6288 27.6768 17.2159C27.6768 16.803 27.5954 16.4394 27.4325 16.125C27.2734 15.8106 27.0253 15.5663 26.6882 15.392C26.3549 15.214 25.925 15.125 25.3984 15.125H23.4666V25H21.3587ZM37.1271 21.3295V16.2727H39.1839V25H37.1896V23.4489H37.0987C36.9018 23.9375 36.5779 24.3371 36.1271 24.6477C35.6802 24.9583 35.129 25.1136 34.4737 25.1136C33.9018 25.1136 33.3961 24.9867 32.9567 24.733C32.5211 24.4754 32.1802 24.1023 31.9339 23.6136C31.6877 23.1212 31.5646 22.5265 31.5646 21.8295V16.2727H33.6214V21.5114C33.6214 22.0644 33.773 22.5038 34.076 22.8295C34.379 23.1553 34.7768 23.3182 35.2692 23.3182C35.5722 23.3182 35.8658 23.2443 36.1499 23.0966C36.4339 22.9489 36.6669 22.7292 36.8487 22.4375C37.0343 22.142 37.1271 21.7727 37.1271 21.3295ZM41.299 25V16.2727H43.2649V17.7557H43.3672C43.549 17.2557 43.8501 16.8655 44.2706 16.5852C44.6911 16.3011 45.1929 16.1591 45.7763 16.1591C46.3672 16.1591 46.8653 16.303 47.2706 16.5909C47.6797 16.875 47.9676 17.2633 48.1342 17.7557H48.2251C48.4183 17.2708 48.7441 16.8845 49.2024 16.5966C49.6645 16.3049 50.2119 16.1591 50.8445 16.1591C51.6475 16.1591 52.3028 16.4129 52.8104 16.9205C53.3179 17.428 53.5717 18.1686 53.5717 19.142V25H51.5092V19.4602C51.5092 18.9186 51.3653 18.5227 51.0774 18.2727C50.7895 18.0189 50.4373 17.892 50.0206 17.892C49.5244 17.892 49.1361 18.0473 48.8558 18.358C48.5793 18.6648 48.4411 19.0644 48.4411 19.5568V25H46.424V19.375C46.424 18.9242 46.2876 18.5644 46.0149 18.2955C45.746 18.0265 45.3937 17.892 44.9581 17.892C44.6626 17.892 44.3937 17.9678 44.1513 18.1193C43.9089 18.267 43.7157 18.4773 43.5717 18.75C43.4278 19.0189 43.3558 19.3333 43.3558 19.6932V25H41.299ZM58.1697 25.1761C57.6167 25.1761 57.1186 25.0777 56.6754 24.8807C56.236 24.6799 55.8875 24.3845 55.63 23.9943C55.3762 23.6042 55.2493 23.1231 55.2493 22.5511C55.2493 22.0587 55.3402 21.6515 55.522 21.3295C55.7038 21.0076 55.9519 20.75 56.2663 20.5568C56.5807 20.3636 56.9349 20.2178 57.3288 20.1193C57.7266 20.017 58.1375 19.9432 58.5618 19.8977C59.0732 19.8447 59.4879 19.7973 59.8061 19.7557C60.1243 19.7102 60.3554 19.642 60.4993 19.5511C60.647 19.4564 60.7209 19.3106 60.7209 19.1136V19.0795C60.7209 18.6515 60.594 18.3201 60.3402 18.0852C60.0864 17.8504 59.7209 17.733 59.2436 17.733C58.7398 17.733 58.3402 17.8428 58.0447 18.0625C57.7531 18.2822 57.5561 18.5417 57.4538 18.8409L55.5334 18.5682C55.6849 18.0379 55.9349 17.5947 56.2834 17.2386C56.6319 16.8788 57.058 16.6098 57.5618 16.4318C58.0656 16.25 58.6224 16.1591 59.2322 16.1591C59.6527 16.1591 60.0713 16.2083 60.4879 16.3068C60.9046 16.4053 61.2853 16.5682 61.63 16.7955C61.9747 17.0189 62.2512 17.3239 62.4595 17.7102C62.6716 18.0966 62.7777 18.5795 62.7777 19.1591V25H60.8004V23.8011H60.7322C60.6072 24.0436 60.4311 24.2708 60.2038 24.483C59.9804 24.6913 59.6982 24.8598 59.3572 24.9886C59.0201 25.1136 58.6243 25.1761 58.1697 25.1761ZM58.7038 23.6648C59.1167 23.6648 59.4747 23.5833 59.7777 23.4205C60.0807 23.2538 60.3137 23.0341 60.4766 22.7614C60.6432 22.4886 60.7266 22.1913 60.7266 21.8693V20.8409C60.6622 20.8939 60.5523 20.9432 60.397 20.9886C60.2455 21.0341 60.075 21.0739 59.8857 21.108C59.6963 21.142 59.5088 21.1723 59.3232 21.1989C59.1375 21.2254 58.9766 21.2481 58.8402 21.267C58.5334 21.3087 58.2588 21.3769 58.0163 21.4716C57.7739 21.5663 57.5826 21.6989 57.4425 21.8693C57.3023 22.036 57.2322 22.2519 57.2322 22.517C57.2322 22.8958 57.3705 23.1818 57.647 23.375C57.9235 23.5682 58.2758 23.6648 58.7038 23.6648Z" fill="#343A40"/>
<rect x="1" y="1" width="82" height="37" rx="18.5" stroke="#343A40" stroke-width="2"/>
</svg>
