<svg width="16" height="17" viewBox="0 0 16 17" fill="none" xmlns="http://www.w3.org/2000/svg">
<path fill-rule="evenodd" clip-rule="evenodd" d="M11.7425 10.8433C12.7104 9.52213 13.1439 7.8842 12.9563 6.25713C12.7686 4.62979 11.9734 3.13332 10.7297 2.06711C9.4861 1.0009 7.88573 0.443582 6.24882 0.506655C4.61191 0.569728 3.05917 1.24854 1.90125 2.40729C0.743334 3.56603 0.0656328 5.11926 0.00373101 6.75621C-0.0581708 8.39317 0.500292 9.99314 1.56739 11.236C2.63449 12.4789 4.13153 13.273 5.759 13.4596C7.38621 13.6461 9.02383 13.2114 10.3443 12.2424C10.3742 12.2823 10.4061 12.3201 10.442 12.357L14.292 16.207C14.4795 16.3946 14.7339 16.5001 14.9991 16.5002C15.2644 16.5003 15.5188 16.395 15.7065 16.2075C15.8941 16.02 15.9996 15.7656 15.9997 15.5003C15.9998 15.2351 15.8945 14.9806 15.707 14.793L11.857 10.943C11.8214 10.9069 11.7831 10.8736 11.7425 10.8433ZM11.5813 9.10474C11.8577 8.43745 12 7.72225 12 6.99998C12 5.54129 11.4205 4.14234 10.3891 3.11089C9.35762 2.07944 7.95867 1.49998 6.49998 1.49998C5.04129 1.49998 3.64235 2.07944 2.6109 3.11089C1.57945 4.14234 0.999982 5.54129 0.999982 6.99998C0.999982 7.72225 1.14224 8.43745 1.41864 9.10474C1.69505 9.77203 2.10017 10.3783 2.61089 10.8891C3.12162 11.3998 3.72793 11.8049 4.39522 12.0813C5.06251 12.3577 5.77771 12.5 6.49998 12.5C7.22225 12.5 7.93745 12.3577 8.60474 12.0813C9.27203 11.8049 9.87835 11.3998 10.3891 10.8891C10.8998 10.3783 11.3049 9.77203 11.5813 9.10474Z" fill="#BAB8BC"/>
</svg>
